<?xml version="1.0" encoding="UTF-8"?>
<svg version="1.1" xmlns="http://www.w3.org/2000/svg" width="64" height="64">
<path d="M0 0 C1.6953125 1.2421875 1.6953125 1.2421875 3 3 C3.328125 5.19140625 3.328125 5.19140625 3.25 7.5625 C3.23453125 8.34753906 3.2190625 9.13257813 3.203125 9.94140625 C3 12 3 12 2 14 C1.90090698 16.33160055 1.87029496 18.66629942 1.875 21 C1.8747583 21.67627441 1.8745166 22.35254883 1.87426758 23.04931641 C1.89753001 26.88351233 2.14319778 30.5828285 2.6875 34.375 C3.24430297 39.36129524 2.63038299 43.6603109 0 48 C-2.26875595 49.89674285 -4.24010014 50.79568006 -7 52 C-7.99 52.495 -7.99 52.495 -9 53 C-10.54023996 53.06950541 -12.08334988 53.08452357 -13.625 53.0625 C-14.85089844 53.04896484 -14.85089844 53.04896484 -16.1015625 53.03515625 C-16.72804687 53.02355469 -17.35453125 53.01195312 -18 53 C-18.12117188 53.62648437 -18.24234375 54.25296875 -18.3671875 54.8984375 C-18.61855469 56.12433594 -18.61855469 56.12433594 -18.875 57.375 C-19.03742187 58.18710937 -19.19984375 58.99921875 -19.3671875 59.8359375 C-20 62 -20 62 -22 64 C-25.4375 64.4375 -25.4375 64.4375 -29 64 C-32.66117981 59.74694354 -32.51731859 55.33412687 -32.5 50 C-32.54253906 48.80890625 -32.54253906 48.80890625 -32.5859375 47.59375 C-32.60011914 43.33925762 -32.36005529 41.49317433 -29.78125 37.9609375 C-26.78617121 35.84923869 -25.59214014 35.41171668 -22 35.625 C-20.7625 35.67527344 -20.7625 35.67527344 -19.5 35.7265625 C-16.95607618 36.00480417 -14.49945321 36.45547626 -12 37 C-12.01160156 35.94039062 -12.02320313 34.88078125 -12.03515625 33.7890625 C-12.04453476 32.40104342 -12.05363489 31.01302245 -12.0625 29.625 C-12.07087891 28.92632813 -12.07925781 28.22765625 -12.08789062 27.5078125 C-12.11328125 22.2265625 -12.11328125 22.2265625 -11 20 C-11.64324219 20.30035156 -12.28648438 20.60070312 -12.94921875 20.91015625 C-20.53428099 24.10215819 -26.91119973 24.57559621 -35 23 C-37.37890625 21.9453125 -37.37890625 21.9453125 -39 21 C-38.84402344 21.85722656 -38.68804687 22.71445312 -38.52734375 23.59765625 C-36.45042275 35.79784781 -36.45042275 35.79784781 -38 41 C-38.66257812 41.59167969 -39.32515625 42.18335938 -40.0078125 42.79296875 C-42.58869664 45.65218353 -42.58479652 47.45031999 -42.75 51.25 C-42.80671875 52.32765625 -42.8634375 53.4053125 -42.921875 54.515625 C-42.96054687 55.74539062 -42.96054687 55.74539062 -43 57 C-45.375 57.625 -45.375 57.625 -48 58 C-51.15471642 54.84528358 -50.34702582 51.05793264 -50.4609375 46.75 C-50.69160836 43.85889027 -50.69160836 43.85889027 -53.0390625 42.625 C-53.68617187 42.41875 -54.33328125 42.2125 -55 42 C-55.02692484 39.70839681 -55.04636124 37.41670454 -55.0625 35.125 C-55.07410156 33.84882812 -55.08570313 32.57265625 -55.09765625 31.2578125 C-55 28 -55 28 -54 26 C-53.98652367 24.60762604 -54.03318696 23.21435247 -54.11328125 21.82421875 C-54.14357422 20.99599609 -54.17386719 20.16777344 -54.20507812 19.31445312 C-54.2762516 17.57393824 -54.36716326 15.83410998 -54.47851562 14.09570312 C-54.65486531 7.94252909 -54.65486531 7.94252909 -52.82006836 5.30175781 C-48.79510983 1.68645607 -45.49399052 1.25160981 -40.34765625 1.5 C-36.74286456 2.26774266 -35.09504512 4.06693684 -33 7 C-33 7.66 -33 8.32 -33 9 C-24.01170654 8.69582763 -16.38118945 7.75530525 -9.375 1.75 C-6.10875428 -0.65670737 -3.95923853 -0.51323462 0 0 Z M-6 3 C-6.66 3.99 -7.32 4.98 -8 6 C-9.32520503 6.68268138 -10.65812182 7.3507041 -12 8 C-12.33 8.66 -12.66 9.32 -13 10 C-16.0625 10.625 -16.0625 10.625 -19 11 C-19 11.66 -19 12.32 -19 13 C-19.886875 12.79375 -20.77375 12.5875 -21.6875 12.375 C-25.2252711 11.97449761 -26.86632967 12.43316484 -30 14 C-30 13.34 -30 12.68 -30 12 C-31.98 12 -33.96 12 -36 12 C-36.103125 11.21625 -36.20625 10.4325 -36.3125 9.625 C-36.77595022 6.66954819 -36.77595022 6.66954819 -40 5 C-43.79106167 4.58642964 -46.12965695 4.52131132 -49.5 6.375 C-51.54908444 9.96089777 -50.94524107 12.39925054 -50.3671875 16.3984375 C-49.65923422 21.4143618 -49.74843574 26.08645143 -51 31 C-51.21192095 32.58025005 -51.39923371 34.16398461 -51.5625 35.75 C-51.64628906 36.54921875 -51.73007812 37.3484375 -51.81640625 38.171875 C-51.87699219 38.77515625 -51.93757813 39.3784375 -52 40 C-51.03320312 40.42925781 -51.03320312 40.42925781 -50.046875 40.8671875 C-48 42 -48 42 -47.25 44.125 C-47.1675 44.74375 -47.085 45.3625 -47 46 C-46.67 45.01 -46.34 44.02 -46 43 C-45.175 42.54625 -44.35 42.0925 -43.5 41.625 C-40.81810771 40.23641254 -40.81810771 40.23641254 -40.125 37.625 C-39.94607277 33.86752813 -40.60698815 30.98252964 -42 27.5 C-43 25 -43 25 -43.4375 22.375 C-44.07187554 19.69652548 -44.90913529 18.72723607 -47 17 C-46.67 16.34 -46.34 15.68 -46 15 C-45.45730469 15.47050781 -44.91460937 15.94101563 -44.35546875 16.42578125 C-40.07272095 19.28804885 -35.02627473 19.41317605 -30 20 C-29.23171875 20.09796875 -28.4634375 20.1959375 -27.671875 20.296875 C-20.78237776 20.75617482 -13.95064528 18.36494822 -8 15 C-7.03749701 12.93419366 -7.03749701 12.93419366 -7 11 C-6.34 11.33 -5.68 11.66 -5 12 C-5.375 14.4375 -5.375 14.4375 -6 17 C-6.66 17.33 -7.32 17.66 -8 18 C-9.06349529 23.5758241 -9.06349529 23.5758241 -8 29 C-7.12471312 33.02631965 -6.94252022 36.00507639 -8 40 C-11.24221555 41.08073852 -13.60402937 41.21676408 -17 41 C-17.66 40.34 -18.32 39.68 -19 39 C-22.4728531 38.54701916 -24.28308571 38.48810257 -27.171875 40.55078125 C-29.71452175 43.95727593 -29.4654342 46.35730974 -29.375 50.5625 C-29.37306641 51.57086914 -29.37306641 51.57086914 -29.37109375 52.59960938 C-29.30575637 56.25487284 -29.07431147 57.8885328 -27 61 C-25.02 60.505 -25.02 60.505 -23 60 C-22.67 57.69 -22.34 55.38 -22 53 C-22.639375 52.608125 -23.27875 52.21625 -23.9375 51.8125 C-26.43778819 49.61527704 -26.64950425 48.24208567 -27 45 C-26.34 45 -25.68 45 -25 45 C-24.690625 45.825 -24.38125 46.65 -24.0625 47.5 C-22.26976626 50.22166509 -22.26976626 50.22166509 -19.5703125 50.4375 C-13.98858227 50.55851312 -9.80072202 50.11398185 -5 47 C-5 46.34 -5 45.68 -5 45 C-4.01 45 -3.02 45 -2 45 C-0.18341717 38.90910463 0.3243467 34.45993226 -1.53125 28.2109375 C-2.16038513 25.24351679 -2.17039433 22.40612552 -2.1875 19.375 C-2.20167969 18.22773438 -2.21585938 17.08046875 -2.23046875 15.8984375 C-2 13 -2 13 0 11 C0.25003964 7.45821402 0.25003964 7.45821402 0 4 C-1.05429686 2.73527935 -1.05429686 2.73527935 -3.4375 2.75 C-4.283125 2.8325 -5.12875 2.915 -6 3 Z M-47 46 C-47 48.64 -47 51.28 -47 54 C-46.67 54 -46.34 54 -46 54 C-46 51.36 -46 48.72 -46 46 C-46.33 46 -46.66 46 -47 46 Z " fill="#6C2EEB" transform="translate(58,0)"/>
</svg>
